<svg xmlns="http://www.w3.org/2000/svg" xmlns:xlink="http://www.w3.org/1999/xlink" width="500" zoomAndPan="magnify" viewBox="0 0 375 374.999991" height="500" preserveAspectRatio="xMidYMid meet" version="1.0"><defs><clipPath id="3d199cd994"><path d="M 65.804688 131 L 309.628906 131 L 309.628906 374.851562 L 65.804688 374.851562 Z M 65.804688 131 " clip-rule="nonzero"/></clipPath><clipPath id="1e61c7e354"><path d="M 175.710938 272.480469 L 203.472656 272.480469 L 203.472656 300.242188 L 175.710938 300.242188 Z M 175.710938 272.480469 " clip-rule="nonzero"/></clipPath><clipPath id="7d73d05064"><path d="M 213.253906 219.832031 L 241.015625 219.832031 L 241.015625 247.59375 L 213.253906 247.59375 Z M 213.253906 219.832031 " clip-rule="nonzero"/></clipPath><clipPath id="5cf8e5aa79"><path d="M 146.175781 219.832031 L 173.9375 219.832031 L 173.9375 247.59375 L 146.175781 247.59375 Z M 146.175781 219.832031 " clip-rule="nonzero"/></clipPath><clipPath id="d5145a3dcf"><path d="M 176.3125 181.765625 L 204.074219 181.765625 L 204.074219 209.527344 L 176.3125 209.527344 Z M 176.3125 181.765625 " clip-rule="nonzero"/></clipPath><clipPath id="d128915ef9"><path d="M 123.074219 272.070312 L 150.835938 272.070312 L 150.835938 299.832031 L 123.074219 299.832031 Z M 123.074219 272.070312 " clip-rule="nonzero"/></clipPath><clipPath id="2d80a30260"><path d="M 224.621094 272.070312 L 252.382812 272.070312 L 252.382812 299.832031 L 224.621094 299.832031 Z M 224.621094 272.070312 " clip-rule="nonzero"/></clipPath></defs><path fill="#35acb9" d="M 166.097656 115.820312 L 213.320312 115.820312 L 303.023438 -33.054688 L 255.796875 -33.054688 L 166.097656 115.820312 " fill-opacity="1" fill-rule="nonzero"/><g clip-path="url(#3d199cd994)"><path fill="#eada46" d="M 309.617188 253.355469 C 309.617188 186.210938 255.074219 131.785156 187.789062 131.785156 C 120.503906 131.785156 65.960938 186.210938 65.960938 253.355469 C 65.960938 320.5 120.503906 374.929688 187.789062 374.929688 C 255.074219 374.929688 309.617188 320.5 309.617188 253.355469 " fill-opacity="1" fill-rule="nonzero"/></g><path fill="#eada46" d="M 270.261719 253.355469 C 270.261719 207.90625 233.335938 171.054688 187.789062 171.054688 C 142.242188 171.054688 105.316406 207.90625 105.316406 253.355469 C 105.316406 298.808594 142.242188 335.65625 187.789062 335.65625 C 233.335938 335.65625 270.261719 298.808594 270.261719 253.355469 " fill-opacity="1" fill-rule="nonzero"/><path fill="#e7aa32" d="M 187.789062 335.65625 C 142.242188 335.65625 105.316406 298.808594 105.316406 253.355469 C 105.316406 207.90625 142.242188 171.054688 187.789062 171.054688 C 233.335938 171.054688 270.261719 207.90625 270.261719 253.355469 C 270.261719 298.808594 233.335938 335.65625 187.789062 335.65625 Z M 187.789062 162.945312 C 137.761719 162.945312 97.191406 203.429688 97.191406 253.355469 C 97.191406 303.28125 137.761719 343.765625 187.789062 343.765625 C 237.820312 343.765625 278.390625 303.28125 278.390625 253.355469 C 278.390625 203.429688 237.820312 162.945312 187.789062 162.945312 " fill-opacity="1" fill-rule="nonzero"/><path fill="#eada46" d="M 155 136.273438 L 155 120.308594 C 155 117.839844 157.011719 115.820312 159.5 115.820312 L 216.097656 115.820312 C 218.570312 115.820312 220.59375 117.839844 220.59375 120.308594 L 220.59375 136.273438 C 225.496094 137.648438 230.292969 139.292969 234.941406 141.238281 C 235.347656 139.683594 235.585938 138.066406 235.585938 136.390625 L 235.585938 120.308594 C 235.585938 109.582031 226.832031 100.859375 216.097656 100.859375 L 159.5 100.859375 C 148.75 100.859375 140.007812 109.582031 140.007812 120.308594 L 140.007812 136.390625 C 140.007812 138.066406 140.234375 139.683594 140.640625 141.222656 C 145.285156 139.277344 150.085938 137.648438 155 136.273438 " fill-opacity="1" fill-rule="nonzero"/><path fill="#52c5ca" d="M 213.441406 115.820312 L 166.214844 115.820312 L 76.515625 -33.054688 L 123.742188 -33.054688 L 213.441406 115.820312 " fill-opacity="1" fill-rule="nonzero"/><g clip-path="url(#1e61c7e354)"><path fill="#35acb9" d="M 189.59375 272.480469 C 181.925781 272.480469 175.710938 278.695312 175.710938 286.359375 C 175.710938 294.027344 181.925781 300.242188 189.59375 300.242188 C 197.257812 300.242188 203.472656 294.027344 203.472656 286.359375 C 203.472656 278.695312 197.257812 272.480469 189.59375 272.480469 " fill-opacity="1" fill-rule="nonzero"/></g><g clip-path="url(#7d73d05064)"><path fill="#35acb9" d="M 227.132812 219.832031 C 219.46875 219.832031 213.253906 226.046875 213.253906 233.710938 C 213.253906 241.378906 219.46875 247.59375 227.132812 247.59375 C 234.800781 247.59375 241.015625 241.378906 241.015625 233.710938 C 241.015625 226.046875 234.800781 219.832031 227.132812 219.832031 " fill-opacity="1" fill-rule="nonzero"/></g><g clip-path="url(#5cf8e5aa79)"><path fill="#35acb9" d="M 160.054688 219.832031 C 152.390625 219.832031 146.175781 226.046875 146.175781 233.710938 C 146.175781 241.378906 152.390625 247.59375 160.054688 247.59375 C 167.722656 247.59375 173.9375 241.378906 173.9375 233.710938 C 173.9375 226.046875 167.722656 219.832031 160.054688 219.832031 " fill-opacity="1" fill-rule="nonzero"/></g><g clip-path="url(#d5145a3dcf)"><path fill="#ff5757" d="M 190.191406 181.765625 C 182.527344 181.765625 176.3125 187.980469 176.3125 195.644531 C 176.3125 203.3125 182.527344 209.527344 190.191406 209.527344 C 197.859375 209.527344 204.074219 203.3125 204.074219 195.644531 C 204.074219 187.980469 197.859375 181.765625 190.191406 181.765625 " fill-opacity="1" fill-rule="nonzero"/></g><g clip-path="url(#d128915ef9)"><path fill="#35acb9" d="M 136.957031 272.070312 C 129.289062 272.070312 123.074219 278.28125 123.074219 285.949219 C 123.074219 293.617188 129.289062 299.832031 136.957031 299.832031 C 144.621094 299.832031 150.835938 293.617188 150.835938 285.949219 C 150.835938 278.28125 144.621094 272.070312 136.957031 272.070312 " fill-opacity="1" fill-rule="nonzero"/></g><g clip-path="url(#2d80a30260)"><path fill="#35acb9" d="M 238.5 272.070312 C 230.835938 272.070312 224.621094 278.28125 224.621094 285.949219 C 224.621094 293.617188 230.835938 299.832031 238.5 299.832031 C 246.167969 299.832031 252.382812 293.617188 252.382812 285.949219 C 252.382812 278.28125 246.167969 272.070312 238.5 272.070312 " fill-opacity="1" fill-rule="nonzero"/></g><path stroke-linecap="butt" transform="matrix(-0.988713, 2.235808, -2.20786, -0.976354, 154.299986, 245.97596)" fill="none" stroke-linejoin="miter" d="M 0.0000938214 -0.000402401 L 11.84614 0.00073149 " stroke="#ffffff" stroke-width="1" stroke-opacity="1" stroke-miterlimit="4"/><path stroke-linecap="round" transform="matrix(-0.988713, 2.235808, -2.20786, -0.976354, 142.093354, 273.57921)" fill="none" stroke-linejoin="round" d="M -2.500092 -1.499086 L -0.499845 0.000733291 L -2.500737 1.500076 " stroke="#ffffff" stroke-width="1" stroke-opacity="1" stroke-miterlimit="4"/><path stroke-linecap="butt" transform="matrix(1.165031, 2.076545, -2.105386, 1.181212, 166.504402, 245.399223)" fill="none" stroke-linejoin="miter" d="M -0.000389692 0.0000200025 L 13.193724 0.000240483 " stroke="#ffffff" stroke-width="1" stroke-opacity="1" stroke-miterlimit="4"/><path stroke-linecap="round" transform="matrix(1.165031, 2.076545, -2.105386, 1.181212, 182.457737, 273.834356)" fill="none" stroke-linejoin="round" d="M -2.500053 -1.499976 L -0.499756 0.000240142 L -2.500348 1.499978 " stroke="#ffffff" stroke-width="1" stroke-opacity="1" stroke-miterlimit="4"/><path stroke-linecap="butt" transform="matrix(1.656601, 1.707025, -1.732427, 1.681252, 199.469567, 205.220274)" fill="none" stroke-linejoin="miter" d="M -0.000698769 -0.000196822 L 10.162021 -0.000410338 " stroke="#ffffff" stroke-width="1" stroke-opacity="1" stroke-miterlimit="4"/><path stroke-linecap="round" transform="matrix(1.656601, 1.707025, -1.732427, 1.681252, 217.132841, 223.421177)" fill="none" stroke-linejoin="round" d="M -2.499715 -1.499649 L -0.500336 -0.000406612 L -2.499376 1.499538 " stroke="#ffffff" stroke-width="1" stroke-opacity="1" stroke-miterlimit="4"/><path stroke-linecap="butt" transform="matrix(-1.533072, 1.936453, -1.892748, -1.498472, 181.481551, 206.125724)" fill="none" stroke-linejoin="miter" d="M 0.0000421341 0.000537651 L 8.300105 -0.000487876 " stroke="#ffffff" stroke-width="1" stroke-opacity="1" stroke-miterlimit="4"/><path stroke-linecap="round" transform="matrix(-1.533072, 1.936453, -1.892748, -1.498472, 167.989373, 223.16795)" fill="none" stroke-linejoin="round" d="M -2.499841 -1.49959 L -0.500638 -0.000488175 L -2.500675 1.499785 " stroke="#ffffff" stroke-width="1" stroke-opacity="1" stroke-miterlimit="4"/><path stroke-linecap="butt" transform="matrix(0.52147, 2.396344, -2.358901, 0.513322, 229.806318, 246.831341)" fill="none" stroke-linejoin="miter" d="M 0.000133475 0.000720807 L 10.331892 -0.000518628 " stroke="#ffffff" stroke-width="1" stroke-opacity="1" stroke-miterlimit="4"/><path stroke-linecap="round" transform="matrix(0.52147, 2.396344, -2.358901, 0.513322, 235.454653, 272.787433)" fill="none" stroke-linejoin="round" d="M -2.499858 -1.499193 L -0.499647 -0.000513097 L -2.500003 1.499722 " stroke="#ffffff" stroke-width="1" stroke-opacity="1" stroke-miterlimit="4"/></svg>