<svg xmlns="http://www.w3.org/2000/svg" xmlns:xlink="http://www.w3.org/1999/xlink" width="120" zoomAndPan="magnify" viewBox="0 0 90 37.5" height="50" preserveAspectRatio="xMidYMid meet" version="1.0"><defs><g/><clipPath id="2e52384e63"><path d="M 44 2.363281 L 57 2.363281 L 57 12 L 44 12 Z M 44 2.363281 " clip-rule="nonzero"/></clipPath><clipPath id="1fd399b788"><path d="M 35.292969 12 L 57.285156 12 L 57.285156 34.644531 L 35.292969 34.644531 Z M 35.292969 12 " clip-rule="nonzero"/></clipPath><clipPath id="cd661cfa8e"><path d="M 36 2.363281 L 49 2.363281 L 49 12 L 36 12 Z M 36 2.363281 " clip-rule="nonzero"/></clipPath><clipPath id="77143b15a2"><path d="M 45.585938 25.359375 L 47.988281 25.359375 L 47.988281 27.761719 L 45.585938 27.761719 Z M 45.585938 25.359375 " clip-rule="nonzero"/></clipPath><clipPath id="16099e7679"><path d="M 48.988281 20.589844 L 51.390625 20.589844 L 51.390625 22.992188 L 48.988281 22.992188 Z M 48.988281 20.589844 " clip-rule="nonzero"/></clipPath><clipPath id="f139bfba1c"><path d="M 42.914062 20.589844 L 45.316406 20.589844 L 45.316406 22.992188 L 42.914062 22.992188 Z M 42.914062 20.589844 " clip-rule="nonzero"/></clipPath><clipPath id="00ddbdf748"><path d="M 45.640625 17.144531 L 48.042969 17.144531 L 48.042969 19.546875 L 45.640625 19.546875 Z M 45.640625 17.144531 " clip-rule="nonzero"/></clipPath><clipPath id="6656ff2a49"><path d="M 40.820312 25.320312 L 43.222656 25.320312 L 43.222656 27.722656 L 40.820312 27.722656 Z M 40.820312 25.320312 " clip-rule="nonzero"/></clipPath><clipPath id="137e74b047"><path d="M 50.015625 25.320312 L 52.417969 25.320312 L 52.417969 27.722656 L 50.015625 27.722656 Z M 50.015625 25.320312 " clip-rule="nonzero"/></clipPath><clipPath id="6279893674"><path d="M 0.59375 16 L 5 16 L 5 31 L 0.59375 31 Z M 0.59375 16 " clip-rule="nonzero"/></clipPath></defs><g clip-path="url(#2e52384e63)"><path fill="#35acb9" d="M 44.339844 11.175781 L 48.597656 11.175781 L 56.6875 -2.308594 L 52.429688 -2.308594 L 44.339844 11.175781 " fill-opacity="1" fill-rule="nonzero"/></g><g clip-path="url(#1fd399b788)"><path fill="#eada46" d="M 57.285156 23.636719 C 57.285156 17.554688 52.363281 12.625 46.296875 12.625 C 40.226562 12.625 35.308594 17.554688 35.308594 23.636719 C 35.308594 29.71875 40.226562 34.648438 46.296875 34.648438 C 52.363281 34.648438 57.285156 29.71875 57.285156 23.636719 " fill-opacity="1" fill-rule="nonzero"/></g><path fill="#eada46" d="M 53.734375 23.636719 C 53.734375 19.519531 50.402344 16.179688 46.296875 16.179688 C 42.1875 16.179688 38.855469 19.519531 38.855469 23.636719 C 38.855469 27.753906 42.1875 31.09375 46.296875 31.09375 C 50.402344 31.09375 53.734375 27.753906 53.734375 23.636719 " fill-opacity="1" fill-rule="nonzero"/><path fill="#e7aa32" d="M 46.296875 31.09375 C 42.1875 31.09375 38.855469 27.753906 38.855469 23.636719 C 38.855469 19.519531 42.1875 16.179688 46.296875 16.179688 C 50.402344 16.179688 53.734375 19.519531 53.734375 23.636719 C 53.734375 27.753906 50.402344 31.09375 46.296875 31.09375 Z M 46.296875 15.445312 C 41.785156 15.445312 38.125 19.113281 38.125 23.636719 C 38.125 28.160156 41.785156 31.828125 46.296875 31.828125 C 50.808594 31.828125 54.46875 28.160156 54.46875 23.636719 C 54.46875 19.113281 50.808594 15.445312 46.296875 15.445312 " fill-opacity="1" fill-rule="nonzero"/><path fill="#eada46" d="M 43.339844 13.03125 L 43.339844 11.585938 C 43.339844 11.359375 43.519531 11.175781 43.742188 11.175781 L 48.847656 11.175781 C 49.070312 11.175781 49.253906 11.359375 49.253906 11.585938 L 49.253906 13.03125 C 49.695312 13.15625 50.128906 13.304688 50.546875 13.480469 C 50.585938 13.339844 50.605469 13.191406 50.605469 13.042969 L 50.605469 11.585938 C 50.605469 10.613281 49.816406 9.824219 48.847656 9.824219 L 43.742188 9.824219 C 42.773438 9.824219 41.984375 10.613281 41.984375 11.585938 L 41.984375 13.042969 C 41.984375 13.191406 42.007812 13.339844 42.042969 13.480469 C 42.460938 13.304688 42.894531 13.15625 43.339844 13.03125 " fill-opacity="1" fill-rule="nonzero"/><g clip-path="url(#cd661cfa8e)"><path fill="#52c5ca" d="M 48.609375 11.175781 L 44.351562 11.175781 L 36.257812 -2.308594 L 40.519531 -2.308594 L 48.609375 11.175781 " fill-opacity="1" fill-rule="nonzero"/></g><g clip-path="url(#77143b15a2)"><path fill="#35acb9" d="M 46.789062 25.359375 C 46.125 25.359375 45.585938 25.898438 45.585938 26.558594 C 45.585938 27.222656 46.125 27.761719 46.789062 27.761719 C 47.453125 27.761719 47.988281 27.222656 47.988281 26.558594 C 47.988281 25.898438 47.453125 25.359375 46.789062 25.359375 " fill-opacity="1" fill-rule="nonzero"/></g><g clip-path="url(#16099e7679)"><path fill="#35acb9" d="M 50.1875 20.589844 C 49.523438 20.589844 48.988281 21.128906 48.988281 21.792969 C 48.988281 22.457031 49.523438 22.992188 50.1875 22.992188 C 50.851562 22.992188 51.390625 22.457031 51.390625 21.792969 C 51.390625 21.128906 50.851562 20.589844 50.1875 20.589844 " fill-opacity="1" fill-rule="nonzero"/></g><g clip-path="url(#f139bfba1c)"><path fill="#35acb9" d="M 44.113281 20.589844 C 43.449219 20.589844 42.914062 21.128906 42.914062 21.792969 C 42.914062 22.457031 43.449219 22.992188 44.113281 22.992188 C 44.777344 22.992188 45.316406 22.457031 45.316406 21.792969 C 45.316406 21.128906 44.777344 20.589844 44.113281 20.589844 " fill-opacity="1" fill-rule="nonzero"/></g><g clip-path="url(#00ddbdf748)"><path fill="#ff5757" d="M 46.84375 17.144531 C 46.179688 17.144531 45.640625 17.683594 45.640625 18.34375 C 45.640625 19.007812 46.179688 19.546875 46.84375 19.546875 C 47.507812 19.546875 48.042969 19.007812 48.042969 18.34375 C 48.042969 17.683594 47.507812 17.144531 46.84375 17.144531 " fill-opacity="1" fill-rule="nonzero"/></g><g clip-path="url(#6656ff2a49)"><path fill="#35acb9" d="M 42.023438 25.320312 C 41.359375 25.320312 40.820312 25.859375 40.820312 26.523438 C 40.820312 27.1875 41.359375 27.722656 42.023438 27.722656 C 42.683594 27.722656 43.222656 27.1875 43.222656 26.523438 C 43.222656 25.859375 42.683594 25.320312 42.023438 25.320312 " fill-opacity="1" fill-rule="nonzero"/></g><g clip-path="url(#137e74b047)"><path fill="#35acb9" d="M 51.21875 25.320312 C 50.554688 25.320312 50.015625 25.859375 50.015625 26.523438 C 50.015625 27.1875 50.554688 27.722656 51.21875 27.722656 C 51.882812 27.722656 52.417969 27.1875 52.417969 26.523438 C 52.417969 25.859375 51.882812 25.320312 51.21875 25.320312 " fill-opacity="1" fill-rule="nonzero"/></g><path stroke-linecap="butt" transform="matrix(-0.0768164, 0.173707, -0.144216, -0.0637747, 43.674372, 22.970701)" fill="none" stroke-linejoin="miter" d="M -0.0123959 -0.00317176 L 14.112174 0.00334169 " stroke="#ffffff" stroke-width="1" stroke-opacity="1" stroke-miterlimit="4"/><path stroke-linecap="round" transform="matrix(-0.0768164, 0.173707, -0.144216, -0.0637747, 42.552439, 25.507762)" fill="none" stroke-linejoin="round" d="M -2.506002 -1.497735 L -0.493209 0.00333935 L -2.504382 1.507968 " stroke="#ffffff" stroke-width="1" stroke-opacity="1" stroke-miterlimit="4"/><path stroke-linecap="butt" transform="matrix(0.0893697, 0.159292, -0.137522, 0.0771558, 44.779221, 22.891809)" fill="none" stroke-linejoin="miter" d="M -0.010683 0.00670852 L 15.712173 -0.00131462 " stroke="#ffffff" stroke-width="1" stroke-opacity="1" stroke-miterlimit="4"/><path stroke-linecap="round" transform="matrix(0.0893697, 0.159292, -0.137522, 0.0771558, 46.226961, 25.472255)" fill="none" stroke-linejoin="round" d="M -2.503023 -1.510091 L -0.487293 -0.00132298 L -2.493148 1.507206 " stroke="#ffffff" stroke-width="1" stroke-opacity="1" stroke-miterlimit="4"/><path stroke-linecap="butt" transform="matrix(0.13268, 0.136718, -0.113161, 0.109818, 47.760125, 19.246742)" fill="none" stroke-linejoin="miter" d="M 0.00338186 -0.0101175 L 12.110916 -0.0016672 " stroke="#ffffff" stroke-width="1" stroke-opacity="1" stroke-miterlimit="4"/><path stroke-linecap="round" transform="matrix(0.13268, 0.136718, -0.113161, 0.109818, 49.433701, 20.97126)" fill="none" stroke-linejoin="round" d="M -2.493403 -1.507241 L -0.502733 -0.00166915 L -2.499731 1.488534 " stroke="#ffffff" stroke-width="1" stroke-opacity="1" stroke-miterlimit="4"/><path stroke-linecap="butt" transform="matrix(-0.110224, 0.139226, -0.123633, -0.097879, 46.133029, 19.367735)" fill="none" stroke-linejoin="miter" d="M -0.00165768 0.00323243 L 9.9097 0.013586 " stroke="#ffffff" stroke-width="1" stroke-opacity="1" stroke-miterlimit="4"/><path stroke-linecap="round" transform="matrix(-0.110224, 0.139226, -0.123633, -0.097879, 44.985449, 20.817263)" fill="none" stroke-linejoin="round" d="M -2.490825 -1.498913 L -0.501634 0.0135773 L -2.487192 1.499429 " stroke="#ffffff" stroke-width="1" stroke-opacity="1" stroke-miterlimit="4"/><path stroke-linecap="butt" transform="matrix(0.0398677, 0.183207, -0.154081, 0.0335298, 50.515004, 23.02899)" fill="none" stroke-linejoin="miter" d="M -0.00787461 -0.00606973 L 12.316962 -0.0114204 " stroke="#ffffff" stroke-width="1" stroke-opacity="1" stroke-miterlimit="4"/><path stroke-linecap="round" transform="matrix(0.0398677, 0.183207, -0.154081, 0.0335298, 51.025863, 25.37656)" fill="none" stroke-linejoin="round" d="M -2.506741 -1.494828 L -0.496825 -0.011404 L -2.500187 1.498385 " stroke="#ffffff" stroke-width="1" stroke-opacity="1" stroke-miterlimit="4"/><g clip-path="url(#6279893674)"><g fill="#fff7f7" fill-opacity="1"><g transform="translate(0.592105, 26.890966)"><g><path d="M 0.3125 3.40625 C -0.21875 3.40625 -0.722656 3.351562 -1.203125 3.25 L -1.203125 0.96875 C -1.046875 1 -0.878906 1.03125 -0.703125 1.0625 C -0.523438 1.101562 -0.332031 1.125 -0.125 1.125 C 0.363281 1.125 0.710938 0.976562 0.921875 0.6875 C 1.128906 0.394531 1.234375 -0.101562 1.234375 -0.8125 L 1.234375 -10.859375 L 4.171875 -10.859375 L 4.171875 -1.0625 C 4.171875 0.40625 3.847656 1.515625 3.203125 2.265625 C 2.566406 3.023438 1.601562 3.40625 0.3125 3.40625 Z M 0.3125 3.40625 "/></g></g></g></g><g fill="#fff7f7" fill-opacity="1"><g transform="translate(5.946839, 26.890966)"><g><path d="M 7 0 L 6.625 -1.046875 L 6.453125 -1.046875 C 6.210938 -0.660156 5.875 -0.363281 5.4375 -0.15625 C 5.007812 0.0507812 4.503906 0.15625 3.921875 0.15625 C 2.992188 0.15625 2.269531 -0.113281 1.75 -0.65625 C 1.238281 -1.195312 0.984375 -1.957031 0.984375 -2.9375 L 0.984375 -8.40625 L 3.890625 -8.40625 L 3.890625 -3.8125 C 3.890625 -3.257812 3.96875 -2.84375 4.125 -2.5625 C 4.28125 -2.28125 4.535156 -2.140625 4.890625 -2.140625 C 5.390625 -2.140625 5.742188 -2.335938 5.953125 -2.734375 C 6.171875 -3.128906 6.28125 -3.796875 6.28125 -4.734375 L 6.28125 -8.40625 L 9.1875 -8.40625 L 9.1875 0 Z M 7 0 "/></g></g></g><g fill="#fff7f7" fill-opacity="1"><g transform="translate(16.136431, 26.890966)"><g><path d="M 5.0625 0.15625 C 3.664062 0.15625 2.578125 -0.21875 1.796875 -0.96875 C 1.023438 -1.71875 0.640625 -2.78125 0.640625 -4.15625 C 0.640625 -5.570312 1 -6.660156 1.71875 -7.421875 C 2.4375 -8.179688 3.457031 -8.5625 4.78125 -8.5625 C 6.050781 -8.5625 7.03125 -8.226562 7.71875 -7.5625 C 8.414062 -6.90625 8.765625 -5.957031 8.765625 -4.71875 L 8.765625 -3.421875 L 3.578125 -3.421875 C 3.585938 -2.953125 3.753906 -2.582031 4.078125 -2.3125 C 4.410156 -2.050781 4.851562 -1.921875 5.40625 -1.921875 C 5.914062 -1.921875 6.382812 -1.96875 6.8125 -2.0625 C 7.238281 -2.15625 7.703125 -2.316406 8.203125 -2.546875 L 8.203125 -0.46875 C 7.753906 -0.238281 7.285156 -0.078125 6.796875 0.015625 C 6.316406 0.109375 5.738281 0.15625 5.0625 0.15625 Z M 4.890625 -6.578125 C 4.546875 -6.578125 4.257812 -6.46875 4.03125 -6.25 C 3.800781 -6.039062 3.664062 -5.707031 3.625 -5.25 L 6.125 -5.25 C 6.113281 -5.65625 6 -5.976562 5.78125 -6.21875 C 5.5625 -6.457031 5.265625 -6.578125 4.890625 -6.578125 Z M 4.890625 -6.578125 "/></g></g></g><g fill="#fff7f7" fill-opacity="1"><g transform="translate(25.53878, 26.890966)"><g><path d="M 7.328125 0 L 0.359375 0 L 0.359375 -1.65625 L 3.84375 -6.1875 L 0.5625 -6.1875 L 0.5625 -8.40625 L 7.15625 -8.40625 L 7.15625 -6.609375 L 3.828125 -2.21875 L 7.328125 -2.21875 Z M 7.328125 0 "/></g></g></g><g fill="#fff7f7" fill-opacity="1"><g transform="translate(57.540406, 27.54374)"><g><path d="M 5.03125 0 L 5.03125 -3.65625 C 5.03125 -4.101562 4.96875 -4.441406 4.84375 -4.671875 C 4.71875 -4.898438 4.515625 -5.015625 4.234375 -5.015625 C 3.835938 -5.015625 3.550781 -4.859375 3.375 -4.546875 C 3.207031 -4.234375 3.125 -3.695312 3.125 -2.9375 L 3.125 0 L 0.796875 0 L 0.796875 -6.71875 L 2.546875 -6.71875 L 2.84375 -5.890625 L 2.96875 -5.890625 C 3.164062 -6.203125 3.441406 -6.4375 3.796875 -6.59375 C 4.148438 -6.75 4.550781 -6.828125 5 -6.828125 C 5.75 -6.828125 6.328125 -6.613281 6.734375 -6.1875 C 7.148438 -5.757812 7.359375 -5.15625 7.359375 -4.375 L 7.359375 0 Z M 5.03125 0 "/></g></g></g><g fill="#fff7f7" fill-opacity="1"><g transform="translate(65.677021, 27.54374)"><g><path d="M 3.125 0 L 0.796875 0 L 0.796875 -9.21875 L 3.125 -9.21875 Z M 3.125 0 "/></g></g></g><g fill="#fff7f7" fill-opacity="1"><g transform="translate(69.602997, 27.54374)"><g><path d="M 3.125 0 L 0.8125 0 L 0.8125 -6.71875 L 3.125 -6.71875 Z M 0.75 -8.390625 C 0.75 -8.734375 0.84375 -8.988281 1.03125 -9.15625 C 1.226562 -9.332031 1.546875 -9.421875 1.984375 -9.421875 C 2.410156 -9.421875 2.722656 -9.332031 2.921875 -9.15625 C 3.117188 -8.976562 3.21875 -8.722656 3.21875 -8.390625 C 3.21875 -7.710938 2.804688 -7.375 1.984375 -7.375 C 1.160156 -7.375 0.75 -7.710938 0.75 -8.390625 Z M 0.75 -8.390625 "/></g></g></g><g fill="#fff7f7" fill-opacity="1"><g transform="translate(73.552694, 27.54374)"><g><path d="M 5.03125 0 L 5.03125 -3.65625 C 5.03125 -4.101562 4.96875 -4.441406 4.84375 -4.671875 C 4.71875 -4.898438 4.515625 -5.015625 4.234375 -5.015625 C 3.835938 -5.015625 3.550781 -4.859375 3.375 -4.546875 C 3.207031 -4.234375 3.125 -3.695312 3.125 -2.9375 L 3.125 0 L 0.796875 0 L 0.796875 -6.71875 L 2.546875 -6.71875 L 2.84375 -5.890625 L 2.96875 -5.890625 C 3.164062 -6.203125 3.441406 -6.4375 3.796875 -6.59375 C 4.148438 -6.75 4.550781 -6.828125 5 -6.828125 C 5.75 -6.828125 6.328125 -6.613281 6.734375 -6.1875 C 7.148438 -5.757812 7.359375 -5.15625 7.359375 -4.375 L 7.359375 0 Z M 5.03125 0 "/></g></g></g><g fill="#fff7f7" fill-opacity="1"><g transform="translate(81.689309, 27.54374)"><g><path d="M 4.046875 0.125 C 2.921875 0.125 2.050781 -0.171875 1.4375 -0.765625 C 0.820312 -1.367188 0.515625 -2.21875 0.515625 -3.3125 C 0.515625 -4.445312 0.800781 -5.316406 1.375 -5.921875 C 1.945312 -6.523438 2.765625 -6.828125 3.828125 -6.828125 C 4.835938 -6.828125 5.617188 -6.5625 6.171875 -6.03125 C 6.722656 -5.507812 7 -4.753906 7 -3.765625 L 7 -2.734375 L 2.84375 -2.734375 C 2.863281 -2.359375 3.003906 -2.0625 3.265625 -1.84375 C 3.523438 -1.632812 3.878906 -1.53125 4.328125 -1.53125 C 4.734375 -1.53125 5.101562 -1.566406 5.4375 -1.640625 C 5.78125 -1.722656 6.15625 -1.859375 6.5625 -2.046875 L 6.5625 -0.375 C 6.195312 -0.1875 5.816406 -0.0546875 5.421875 0.015625 C 5.035156 0.0859375 4.578125 0.125 4.046875 0.125 Z M 3.90625 -5.265625 C 3.632812 -5.265625 3.40625 -5.175781 3.21875 -5 C 3.039062 -4.832031 2.9375 -4.5625 2.90625 -4.1875 L 4.890625 -4.1875 C 4.878906 -4.507812 4.785156 -4.769531 4.609375 -4.96875 C 4.429688 -5.164062 4.195312 -5.265625 3.90625 -5.265625 Z M 3.90625 -5.265625 "/></g></g></g></svg>